<?xml version="1.0" standalone="no"?>
<!DOCTYPE svg PUBLIC "-//W3C//DTD SVG 20010904//EN"
 "http://www.w3.org/TR/2001/REC-SVG-20010904/DTD/svg10.dtd">
<svg version="1.0" xmlns="http://www.w3.org/2000/svg"
 width="1600.000000pt" height="1131.000000pt" viewBox="0 0 1600.000000 1131.000000"
 preserveAspectRatio="xMidYMid meet">
<metadata>
Created by potrace 1.16, written by Peter Selinger 2001-2019
</metadata>
<g transform="translate(0.000000,1131.000000) scale(0.100000,-0.100000)"
fill="#000000" stroke="none">
<path d="M0 5745 l0 -5565 8000 0 8000 0 0 1504 c0 1496 0 1505 -20 1511 -25
8 -25 21 0 35 20 11 20 21 20 581 l0 570 -22 -6 c-18 -6 -20 -4 -13 11 32 81
34 128 35 861 l0 732 -192 0 c-106 0 -225 -2 -265 -5 -65 -6 -72 -8 -77 -30
-9 -35 -51 -58 -107 -58 -61 0 -99 20 -106 56 -5 24 -12 29 -44 34 -47 8 -62
24 -22 24 60 0 77 43 38 95 -36 46 -28 61 16 31 31 -21 43 -23 101 -19 64 5
68 4 97 -25 17 -17 31 -37 31 -45 0 -24 35 -28 288 -33 l242 -4 0 2655 0 2655
-8000 0 -8000 0 0 -5565z m7127 5051 c76 -64 70 -184 -22 -476 -61 -194 -58
-243 13 -206 64 33 175 205 214 331 27 85 22 78 47 70 45 -14 44 -38 -3 -157
-90 -227 -84 -306 17 -230 89 66 209 269 247 416 29 115 25 170 -16 201 -16
12 -8 27 22 43 29 16 61 -9 74 -57 39 -144 -166 -539 -331 -640 -48 -30 -103
-27 -135 5 -22 21 -25 31 -19 62 l6 37 -38 -42 c-74 -81 -153 -106 -200 -61
-33 31 -30 64 22 234 59 191 80 315 69 390 -10 66 -28 83 -71 69 -39 -14 -67
-75 -68 -147 0 -32 -1 -58 -2 -58 -18 0 -55 29 -59 47 -31 121 142 245 233
169z m1183 -14 c8 -30 6 -51 -6 -93 -32 -106 -110 -241 -193 -333 -50 -55 -51
-57 -51 -121 0 -51 4 -66 18 -73 41 -22 86 21 136 129 40 89 86 140 149 164
39 15 49 15 73 3 38 -17 51 -57 34 -97 -10 -25 -18 -31 -41 -31 -34 0 -34 2
-13 35 8 13 14 34 12 47 -4 31 -34 25 -76 -15 -65 -62 -101 -183 -72 -238 16
-28 82 -25 135 6 45 26 67 53 101 127 28 58 57 88 87 88 l24 0 -29 -56 c-32
-65 -39 -150 -13 -160 17 -7 62 19 86 49 15 19 15 22 -8 56 -21 31 -24 45 -21
100 4 55 8 67 32 87 31 27 73 31 102 10 29 -21 25 -97 -8 -168 -15 -33 -23
-60 -17 -64 13 -8 75 14 90 32 6 8 19 43 28 77 16 59 18 62 50 65 l34 3 -6
-46 -7 -46 52 56 c75 82 127 104 163 68 13 -13 16 -30 13 -79 l-4 -62 23 31
c31 42 72 67 110 67 53 0 68 -55 38 -140 -8 -23 -15 -55 -15 -71 0 -68 85 -15
115 71 38 109 119 197 200 220 39 11 48 10 70 -4 76 -50 -21 -187 -155 -219
-46 -11 -50 -14 -50 -42 0 -127 161 -87 261 65 20 31 35 21 18 -12 -77 -148
-280 -213 -332 -107 l-14 29 -19 -21 c-45 -50 -110 -63 -145 -28 -23 23 -23
57 1 141 16 54 6 75 -28 64 -22 -7 -117 -139 -133 -186 -8 -22 -17 -30 -35
-30 -36 0 -38 21 -11 97 36 99 43 151 22 159 -9 4 -27 2 -39 -4 -32 -14 -108
-114 -147 -195 -28 -57 -36 -66 -54 -61 -33 10 -36 18 -21 62 15 41 14 42 -4
32 -10 -5 -38 -10 -62 -10 -36 0 -50 -6 -74 -31 -37 -39 -75 -59 -114 -59 -35
0 -70 30 -70 61 0 19 -4 17 -41 -16 -50 -45 -96 -65 -149 -65 -52 0 -86 22
-101 67 l-11 35 -32 -30 c-39 -37 -68 -52 -101 -52 -36 0 -75 42 -75 80 l0 31
-30 -35 c-43 -48 -122 -86 -182 -86 -39 0 -54 6 -80 29 -29 26 -33 35 -32 78
1 98 91 221 188 258 43 17 51 17 75 4 21 -12 27 -23 29 -58 3 -41 0 -47 -47
-92 -37 -36 -65 -53 -113 -67 -58 -18 -63 -22 -66 -50 -4 -40 27 -72 69 -72
81 0 175 88 209 196 42 138 114 290 192 406 59 88 91 100 108 40z m1753 0 c-2
-51 -243 -532 -266 -532 -5 0 -6 8 -3 18 3 9 8 31 12 47 8 37 129 345 156 400
51 101 105 137 101 67z m-1168 -1629 c17 -94 84 -424 91 -446 3 -10 18 -23 32
-28 l27 -11 -23 -18 -23 -19 22 -108 c12 -59 24 -111 28 -115 3 -3 31 -2 61 4
141 24 194 27 207 11 10 -13 36 -14 202 -8 l191 7 0 24 c0 13 5 24 10 24 6 0
10 -11 10 -25 0 -20 5 -25 25 -25 14 0 28 0 33 -1 4 0 9 9 12 21 6 23 27 27
22 4 -2 -9 11 -20 32 -29 43 -18 161 -26 176 -11 7 7 10 5 10 -7 0 -17 19 -24
74 -29 l29 -3 78 364 c43 200 81 366 84 369 11 12 228 -43 410 -103 92 -30
283 -105 367 -144 l67 -31 -44 -92 c-24 -51 -66 -140 -95 -197 -48 -98 -50
-105 -35 -127 20 -31 19 -34 -13 -34 -24 0 -32 -8 -60 -65 -18 -36 -32 -72
-32 -80 0 -8 -4 -15 -8 -15 -12 0 -43 -73 -34 -81 4 -4 59 -35 122 -70 178
-98 370 -237 531 -384 36 -33 76 -70 90 -81 13 -12 37 -38 52 -58 16 -21 37
-40 47 -44 18 -8 100 -98 100 -112 0 -21 -36 -20 -53 1 l-18 22 -47 -44 c-26
-25 -68 -62 -94 -83 -27 -20 -48 -43 -48 -51 0 -18 -57 -65 -79 -65 -22 0
-125 -105 -117 -118 3 -6 2 -13 -4 -17 -17 -11 -12 -62 8 -70 15 -6 15 -8 1
-18 -15 -11 -43 -77 -33 -77 3 0 15 7 28 15 21 14 24 13 46 -10 22 -24 29 -25
133 -25 72 0 107 -4 105 -11 -2 -6 -53 -11 -135 -12 -109 -2 -134 -5 -150 -19
-24 -22 -37 -23 -53 -3 -7 8 -21 15 -31 15 -15 0 -8 -16 38 -87 160 -246 279
-560 312 -823 20 -165 22 -190 13 -190 -5 0 -12 35 -16 78 -27 298 -145 645
-304 892 -71 112 -87 127 -133 135 -38 7 -64 25 -35 25 26 0 30 23 6 42 -27
22 -40 23 -40 2 0 -8 -4 -12 -10 -9 -5 3 -10 17 -10 31 0 13 -4 24 -9 24 -5 0
-7 8 -4 18 9 35 -284 289 -428 370 l-41 24 2 -29 c4 -58 0 -103 -10 -103 -5 0
-10 19 -10 43 0 38 -3 44 -40 64 -44 26 -66 14 -30 -15 22 -18 22 -19 6 -50
-9 -18 -14 -37 -11 -42 13 -21 -28 -6 -74 27 -2 1 1 8 6 15 6 7 14 24 17 38 5
15 -3 8 -18 -19 -25 -41 -25 -44 -9 -58 17 -13 16 -14 -5 -8 -20 6 -27 -3 -72
-99 -27 -58 -51 -106 -53 -106 -3 0 -29 11 -58 24 -71 31 -224 82 -272 91 -21
4 -41 13 -44 20 -4 11 20 139 63 340 3 17 8 44 11 61 l5 31 -84 14 c-93 16
-550 20 -631 6 l-48 -8 7 -47 c3 -26 9 -51 12 -57 3 -5 8 -28 10 -50 2 -22 7
-42 10 -45 4 -3 8 -21 9 -40 4 -55 24 -124 41 -137 12 -10 12 -16 3 -26 -6 -8
-9 -22 -5 -30 4 -12 -4 -19 -35 -27 -23 -6 -41 -12 -41 -13 0 -1 34 -1 75 0
69 2 75 1 75 -17 0 -18 -7 -20 -85 -20 -69 0 -85 3 -85 15 0 26 -48 17 -169
-32 -179 -71 -258 -115 -400 -218 -144 -106 -368 -375 -433 -522 -10 -24 -22
-43 -25 -43 -3 0 -50 23 -104 50 -54 28 -102 50 -108 50 -15 0 -32 -93 -18
-102 7 -5 3 -8 -11 -8 -12 0 -25 -7 -28 -15 -5 -12 -8 -12 -22 2 -15 14 -17
14 -26 -6 -14 -33 -25 -25 -16 14 10 46 -6 55 -24 13 -28 -64 -16 0 14 72 35
85 34 80 16 80 -8 0 -30 -37 -52 -91 -21 -51 -40 -87 -42 -80 -2 6 12 50 32
98 34 80 35 86 19 99 -10 7 -22 13 -28 13 -15 1 -69 -121 -100 -224 -15 -49
-34 -109 -41 -133 -19 -57 -18 -92 2 -92 31 0 53 21 60 58 4 20 11 44 15 52 6
10 7 2 3 -22 -9 -52 2 -75 39 -85 l33 -8 -14 -79 c-9 -47 -17 -73 -22 -66 -11
17 -40 5 -40 -17 0 -15 -2 -15 -16 3 -11 14 -17 16 -21 6 -3 -9 -16 -1 -38 22
-32 34 -33 35 -40 13 -14 -45 -23 -315 -14 -432 8 -106 20 -165 49 -255 5 -14
11 -46 15 -72 6 -43 34 -130 95 -291 l22 -58 51 45 c29 25 50 51 48 58 -10 35
-10 50 0 26 12 -32 21 -34 43 -12 9 8 16 13 16 10 0 -3 19 1 41 9 23 8 66 15
95 15 57 0 56 -1 57 58 1 22 4 23 57 21 31 -1 62 1 68 5 16 10 15 -4 -2 -23
-8 -9 -16 -25 -18 -36 -3 -19 4 -20 110 -25 85 -4 115 -9 122 -20 5 -8 10 -61
10 -118 l0 -103 -37 -34 -36 -33 29 -35 c19 -23 38 -36 55 -36 30 -1 55 -25
64 -62 8 -34 49 -73 158 -148 87 -61 226 -141 243 -141 5 0 37 25 72 56 l62
56 0 109 0 109 -55 0 c-85 0 -95 15 -95 141 0 101 0 101 33 134 36 36 38 27
-18 100 -68 89 -102 143 -156 243 -15 29 -26 39 -33 32 -5 -5 -18 -10 -28 -10
-17 0 -17 2 4 30 17 23 19 33 10 42 -7 7 -12 21 -12 31 0 10 -6 31 -14 45 -21
38 -74 209 -82 262 -4 25 -10 52 -15 61 -23 46 -60 314 -66 475 l-6 171 54 6
c91 11 281 84 346 133 17 13 35 24 39 24 8 0 201 112 248 144 88 60 231 173
249 198 11 15 24 28 29 28 5 0 32 17 60 37 95 66 132 53 333 -117 50 -42 131
-103 180 -135 126 -82 346 -215 358 -215 5 0 37 -13 71 -30 63 -30 201 -70
244 -70 l25 0 -6 -167 c-6 -170 -25 -334 -53 -453 -56 -244 -79 -307 -185
-515 -53 -104 -56 -113 -52 -167 5 -54 7 -57 25 -47 14 8 23 8 31 0 6 -6 24
-11 41 -11 52 0 66 -23 66 -108 0 -74 1 -76 35 -108 24 -21 35 -41 35 -59 0
-19 -12 -38 -35 -61 l-35 -33 0 -234 0 -235 -83 -70 c-46 -39 -96 -76 -111
-82 -34 -13 -144 -16 -204 -5 -47 8 -59 23 -65 79 -2 20 -7 39 -10 43 -11 10
-126 -91 -126 -112 -1 -12 10 -59 23 -105 14 -47 28 -102 31 -122 8 -44 16
-46 95 -18 30 11 81 29 114 41 77 26 259 118 345 173 207 133 406 321 554 522
55 76 209 370 219 417 2 13 -10 24 -46 39 -46 20 -49 21 -58 4 -9 -16 -12 -14
-30 15 -20 32 -21 33 -35 14 -14 -19 -14 -19 -11 -1 2 16 -15 27 -102 61 -65
27 -104 48 -104 56 1 8 18 69 38 136 32 111 42 169 62 356 l6 58 219 -6 c194
-5 219 -4 219 10 0 8 5 15 10 15 6 0 10 -6 10 -14 0 -30 232 -34 267 -5 11 9
12 9 8 -3 -6 -14 25 -17 242 -22 136 -3 328 -9 425 -12 l178 -6 10 26 c11 30
30 26 30 -5 0 -18 8 -19 151 -19 l151 0 -17 26 c-23 35 -15 38 25 10 31 -21
35 -22 51 -7 9 9 20 30 24 46 8 31 9 30 19 -17 4 -16 11 -28 17 -28 5 0 29 -9
52 -19 44 -20 209 -30 498 -31 123 0 127 -1 131 -22 2 -13 -2 -93 -8 -178 -7
-85 -16 -194 -20 -242 l-7 -88 32 11 c43 15 83 -2 115 -52 15 -21 33 -39 41
-39 25 0 17 -29 -10 -36 -17 -4 -32 -22 -49 -58 -18 -36 -26 -46 -31 -35 -3 9
-18 16 -36 17 -16 0 -42 10 -59 22 l-29 21 -10 -38 c-6 -21 -18 -77 -27 -123
-18 -96 -88 -350 -109 -395 -13 -30 -34 -108 -35 -131 0 -7 17 -12 40 -12 52
-1 57 -5 65 -52 4 -22 10 -40 15 -40 4 0 10 -9 13 -20 3 -11 13 -20 24 -20 10
0 25 -5 33 -10 12 -7 8 -11 -18 -16 -22 -4 -38 -16 -47 -35 -9 -17 -26 -30
-45 -34 -20 -4 -32 -14 -36 -30 -3 -13 -12 -29 -20 -36 -8 -6 -14 -20 -14 -30
0 -16 -6 -19 -36 -16 -19 3 -40 9 -47 16 -6 6 -19 11 -29 11 -10 0 -18 4 -18
9 0 21 31 78 54 100 35 33 34 59 -1 63 -20 2 -28 9 -28 22 0 14 -13 25 -45 37
-107 40 -147 57 -180 72 -37 17 -70 30 -440 171 -124 47 -246 95 -272 106 -26
11 -49 20 -52 20 -2 0 -10 -17 -17 -37 -14 -43 -133 -287 -173 -356 -15 -25
-25 -49 -24 -55 2 -5 -17 -39 -41 -76 -37 -56 -46 -64 -62 -56 -10 6 -16 17
-13 25 8 20 -1 19 -33 -2 l-26 -17 6 41 c4 23 10 49 13 58 5 11 0 18 -15 22
-11 3 -21 8 -21 12 0 13 -69 41 -75 30 -4 -5 -14 -8 -23 -7 -11 2 -16 -3 -16
-14 1 -13 -5 -18 -22 -18 -26 0 -32 -18 -12 -38 15 -15 3 -16 -23 -1 -12 6
-41 13 -65 15 -25 2 -50 5 -56 7 -6 1 -31 -23 -55 -53 -180 -220 -353 -390
-532 -522 -53 -39 -109 -81 -126 -93 -42 -31 -71 -39 -78 -21 -7 17 -7 17 108
94 175 118 407 336 565 533 58 73 89 129 69 129 -5 0 -9 13 -9 29 0 35 41 81
72 81 22 0 22 0 3 19 -18 16 -242 160 -323 207 -33 19 -33 19 -50 -3 l-17 -23
-87 58 c-66 45 -84 62 -77 73 5 8 9 20 9 27 0 31 -32 1 -106 -98 -80 -108
-311 -349 -375 -391 -20 -13 -70 -47 -111 -75 -157 -109 -382 -218 -543 -264
-63 -18 -81 -43 -34 -48 24 -3 29 -12 64 -132 37 -128 38 -150 8 -150 -19 0
-16 -18 27 -180 49 -182 66 -246 103 -390 58 -223 114 -429 146 -539 17 -58
31 -118 31 -135 l0 -31 -15 29 c-8 15 -27 76 -41 135 -37 149 -92 358 -163
621 -33 124 -94 350 -134 503 -41 153 -78 281 -81 284 -3 4 -23 1 -43 -5 -70
-21 -345 -52 -457 -52 -121 0 -308 20 -426 44 -41 9 -76 16 -77 16 -2 0 -3 -9
-3 -20 0 -13 9 -22 25 -26 18 -4 24 -12 21 -23 -3 -9 -10 -35 -16 -59 -10 -41
-13 -43 -39 -37 l-29 6 -26 -108 c-14 -59 -26 -111 -26 -115 0 -3 23 -11 50
-18 l51 -12 -7 -37 c-9 -52 -17 -57 -71 -43 -25 7 -49 9 -53 5 -14 -16 -52
-195 -44 -203 10 -10 165 -41 309 -62 117 -17 627 -18 705 0 30 6 78 14 105
18 28 3 78 12 113 19 62 13 63 12 60 -8 -2 -17 -18 -24 -90 -41 l-87 -21 -3
-49 c-4 -69 -28 -75 -28 -7 l0 51 -82 -5 c-46 -3 -129 -10 -185 -17 -94 -11
-253 -5 -488 17 -42 4 -328 56 -337 61 -11 7 -16 -7 -48 -132 -17 -66 -33
-126 -36 -135 -3 -12 4 -19 23 -24 18 -5 23 -9 13 -12 -44 -13 -43 -13 -24
-34 18 -20 18 -20 -7 -14 -24 6 -26 3 -39 -52 -7 -32 -15 -53 -17 -46 -2 6 2
36 11 67 8 32 10 58 5 62 -14 8 -11 24 4 24 9 0 26 51 51 151 21 83 36 152 34
154 -2 1 -34 12 -73 23 -181 53 -236 71 -320 107 -49 21 -97 43 -105 50 -8 7
-55 32 -105 56 -83 40 -230 132 -265 165 -10 10 -11 17 -3 25 11 11 15 9 133
-67 19 -12 45 -25 58 -29 18 -5 22 -2 22 14 0 12 5 21 11 21 6 0 9 -14 7 -31
-3 -28 2 -35 37 -55 67 -39 405 -180 495 -207 133 -40 120 -45 146 58 32 122
32 121 -20 134 l-43 11 10 45 c10 43 13 46 36 40 14 -3 36 -9 49 -12 17 -4 22
-1 22 15 0 12 -4 24 -10 27 -17 11 -11 35 12 44 18 6 28 31 58 150 41 157 42
151 -30 166 -40 8 -135 41 -229 80 -69 28 -82 28 -51 0 12 -11 20 -31 20 -49
0 -30 0 -30 15 -9 14 19 19 21 41 11 17 -8 23 -17 19 -27 -4 -9 -16 -40 -27
-69 -19 -50 -22 -53 -47 -47 -35 9 -35 10 -23 42 5 15 13 37 17 48 l7 20 -15
-20 c-8 -11 -32 -39 -54 -62 -37 -40 -39 -41 -69 -28 -19 8 -37 9 -45 4 -8 -5
-22 -9 -32 -9 -16 0 -16 2 -2 31 14 27 15 33 2 47 -23 27 -29 58 -18 99 10 38
10 38 -8 16 -17 -20 -19 -21 -43 -5 -25 17 -25 17 -8 49 30 57 39 63 66 51 25
-12 32 -32 14 -43 -18 -11 -10 -26 13 -23 16 2 22 9 21 26 0 13 5 22 14 22 7
0 12 4 10 9 -4 11 -185 131 -197 131 -5 0 -26 -24 -47 -53 -52 -72 -49 -70
-73 -58 -25 14 -27 28 -5 52 15 17 8 18 -147 18 -185 1 -273 13 -331 42 l-40
20 -22 -20 c-31 -29 -42 -27 -83 16 -29 30 -33 32 -19 10 9 -15 13 -27 8 -27
-5 0 -22 30 -37 66 -15 36 -34 68 -42 71 -8 3 -29 -8 -46 -24 -141 -129 -222
-163 -397 -163 -80 0 -89 -2 -83 -17 6 -16 5 -16 -17 0 -35 24 -43 21 -36 -14
8 -41 -15 -34 -28 8 -8 24 -21 35 -72 57 -34 15 -70 36 -80 47 -9 10 -24 19
-33 19 -9 0 -72 -32 -141 -71 -69 -39 -159 -90 -200 -112 -92 -49 -87 -44 -71
-69 7 -12 25 -42 39 -67 84 -151 283 -421 425 -575 94 -103 239 -246 249 -246
4 0 10 9 13 21 4 11 12 18 18 16 13 -5 13 -10 3 -43 -5 -17 4 -30 46 -67 29
-25 85 -73 123 -107 39 -34 82 -69 98 -78 15 -9 27 -20 27 -25 0 -4 -20 7 -44
25 -24 18 -70 51 -102 73 -32 22 -75 58 -97 80 -21 22 -42 40 -46 40 -11 0
-296 294 -378 391 -23 27 -54 63 -68 79 -25 29 -129 170 -150 204 -53 83 -129
197 -135 201 -4 3 -18 28 -32 57 l-24 52 50 27 c28 15 62 35 76 44 14 9 59 35
100 57 167 90 205 113 203 120 -1 5 -10 28 -19 53 -11 30 -17 82 -18 157 0 62
-4 113 -8 113 -5 0 -8 -60 -8 -134 0 -151 5 -139 -95 -223 -107 -89 -86 -83
-313 -83 -160 0 -202 -3 -196 -12 6 -10 5 -10 -7 -1 -8 6 -59 13 -115 15 -155
5 -143 -25 -147 362 -3 294 -8 360 -33 439 -3 9 -11 17 -19 17 -7 0 -15 10
-18 23 -30 134 -39 181 -45 244 -9 77 -6 83 41 83 20 0 24 -9 37 -77 14 -74
16 -78 40 -76 43 4 160 24 285 48 66 13 167 31 225 40 157 25 148 20 152 73 3
32 0 50 -9 55 -17 11 -16 49 2 93 l15 36 24 -29 c24 -27 25 -27 26 -6 0 29 16
38 29 16 8 -14 12 -16 22 -5 7 6 23 12 36 12 13 0 23 6 23 14 0 23 -28 39 -56
32 -17 -5 -23 -3 -19 4 18 30 111 -4 98 -36 -3 -8 3 -17 13 -21 11 -4 25 -15
32 -25 7 -10 17 -16 22 -13 16 10 32 -37 27 -77 l-5 -40 36 7 c20 4 38 8 39 9
1 1 -2 29 -7 62 -5 32 -10 91 -12 129 -3 64 -1 70 17 70 21 0 25 -17 41 -183
4 -41 11 -65 21 -69 7 -3 42 0 76 6 126 24 117 19 117 57 0 30 3 34 28 34 15
0 37 3 50 6 19 5 22 2 22 -19 0 -14 4 -28 9 -31 5 -3 51 3 102 13 52 11 131
25 176 32 45 7 88 16 94 20 10 6 10 32 -1 122 -9 83 -11 169 -6 308 10 244 10
252 17 264 4 6 10 32 13 58 11 72 61 233 111 354 33 79 41 109 32 115 -11 7
-31 -10 -39 -33 -2 -5 -24 -1 -49 8 -43 16 -46 19 -45 50 1 31 -2 34 -106 86
l-106 55 -30 -67 c-17 -36 -33 -77 -37 -89 -7 -25 -19 -25 -79 -2 l-25 9 38
93 c22 51 37 96 34 101 -6 10 -97 56 -145 73 l-39 14 -25 -55 c-28 -61 -34
-67 -54 -55 -11 7 -10 18 8 65 12 31 22 61 22 66 0 5 -39 27 -87 50 -49 23
-105 50 -126 61 -21 11 -40 18 -41 17 -2 -2 -8 -13 -14 -24 -10 -17 -11 -17
-12 -3 0 24 -16 31 -41 18 -19 -11 -20 -10 -10 9 6 11 11 24 11 29 0 8 -155
82 -172 82 -4 0 -23 11 -43 25 -20 13 -82 46 -138 74 -289 140 -491 237 -567
273 -46 21 -86 40 -87 42 -2 2 19 50 45 107 73 154 73 149 -3 149 -35 0 -67 5
-70 10 -4 6 10 10 34 10 22 0 42 6 45 13 5 10 7 10 12 0 7 -15 34 -17 34 -3 0
6 -6 10 -12 10 -9 0 -8 4 2 10 11 7 19 5 28 -7 11 -15 15 -14 41 17 16 19 44
60 62 90 18 30 41 64 50 75 10 11 25 37 33 57 9 20 19 38 24 40 10 3 102 136
102 146 0 4 18 24 40 46 40 39 57 38 20 -2 -11 -12 -20 -24 -20 -28 0 -6 -22
-36 -77 -102 -15 -18 -36 -48 -47 -66 -20 -32 -76 -118 -116 -176 -28 -40 -60
-108 -60 -125 0 -8 -4 -15 -8 -15 -4 0 -18 -19 -30 -42 -12 -24 -31 -56 -42
-73 -29 -45 -60 -107 -60 -121 0 -7 44 -33 98 -60 277 -135 446 -214 457 -214
7 0 23 -8 36 -19 25 -19 204 -101 222 -101 6 0 18 -6 26 -14 30 -27 145 -79
173 -79 15 0 28 -5 28 -11 0 -6 62 -42 137 -79 155 -77 145 -77 186 13 11 25
47 87 79 138 33 52 58 95 56 96 -2 1 -22 14 -45 29 -24 15 -46 27 -51 27 -5 0
-17 9 -27 20 -28 31 -113 82 -125 75 -5 -3 -10 1 -10 10 0 21 -27 30 -44 16
-12 -10 -13 -9 -9 7 3 15 -13 30 -73 70 -75 50 -78 51 -91 32 -15 -22 -38 -26
-49 -9 -7 11 58 111 85 132 24 18 61 74 61 92 0 14 -7 16 -39 10 -45 -7 -77 5
-86 35 -3 11 -15 20 -25 20 -32 0 -32 17 0 29 17 5 30 14 30 19 0 20 46 30 93
19 l47 -10 0 -49 c0 -26 3 -48 8 -47 4 0 25 22 47 48 22 26 82 96 133 154 50
59 92 111 92 117 0 5 5 10 12 10 6 0 26 11 45 26 29 22 32 28 22 47 -14 24 4
42 175 181 l96 78 20 -23 c42 -49 42 -56 7 -78 -17 -11 -47 -35 -65 -53 l-32
-34 20 -22 c12 -12 31 -22 43 -22 12 0 35 -7 50 -15 24 -12 29 -12 34 0 8 22
23 18 23 -5 0 -13 7 -20 20 -20 17 0 19 -5 13 -32 -6 -31 -6 -31 26 -25 20 4
30 3 26 -3 -3 -6 -19 -10 -35 -10 -16 0 -36 -7 -44 -16 -14 -14 -14 -18 1 -42
18 -27 154 -192 159 -192 2 0 45 33 97 73 51 40 128 95 170 122 42 27 77 54
77 62 0 7 9 13 20 13 12 0 34 7 50 15 28 14 30 20 32 73 2 57 2 57 5 10 2 -27
6 -48 8 -48 7 0 130 74 148 89 10 8 32 14 49 13 17 -1 67 12 111 30 76 31 89
32 88 1 0 -3 -39 -23 -88 -43 -55 -23 -89 -43 -91 -54 -2 -9 8 -37 22 -62 23
-40 24 -48 11 -61 -13 -13 -13 -17 3 -39 17 -24 27 -25 78 -9 17 5 24 -1 39
-34 16 -37 17 -43 3 -59 -15 -16 -13 -20 28 -52 44 -35 54 -50 32 -50 -6 0
-26 18 -45 40 -19 22 -43 40 -54 40 -21 0 -119 -47 -231 -112 -36 -21 -70 -38
-75 -38 -8 0 -53 61 -53 72 0 6 100 66 218 131 63 34 63 35 42 50 -14 10 -34
13 -56 10 -28 -5 -38 0 -64 26 -17 17 -42 34 -56 37 -28 7 -32 24 -6 25 9 0
12 3 6 5 -33 14 -465 -261 -482 -307 -4 -10 130 -174 177 -219 15 -14 49 -51
76 -83 30 -37 53 -56 63 -52 43 16 62 17 62 1 0 -12 -10 -16 -37 -16 l-37 0
20 -21 c19 -18 24 -19 43 -8 19 12 24 10 50 -21 41 -47 46 -68 26 -91 -16 -17
-16 -19 -1 -25 10 -4 36 9 72 37 215 167 489 298 761 364 66 15 72 19 68 39
-8 33 -95 479 -115 591 -27 150 -41 224 -56 288 -8 32 -14 69 -14 82 0 13 -6
30 -14 38 -10 10 -11 18 -5 24 7 7 5 16 -7 28 -11 11 -14 19 -6 23 7 5 5 36
-8 102 -29 144 -68 360 -74 404 -8 63 5 33 19 -41z m2968 -463 c34 -23 37 -29
37 -72 0 -25 2 -52 5 -60 4 -10 -5 -12 -40 -10 -30 3 -45 9 -45 18 0 8 -3 14
-7 14 -5 0 -24 14 -43 30 l-35 28 21 24 c12 13 27 33 33 46 8 14 16 20 24 15
7 -5 29 -19 50 -33z m319 -620 c42 -12 86 -59 95 -102 4 -19 15 -33 29 -39 34
-12 30 -17 -22 -30 -32 -8 -49 -19 -56 -35 -16 -35 -54 -56 -104 -56 -24 0
-47 3 -52 6 -5 3 -25 -6 -45 -19 -33 -23 -57 -31 -57 -20 0 2 11 20 23 39 20
28 23 43 19 89 -4 46 0 61 17 86 12 16 27 44 32 61 10 26 16 30 47 30 21 0 54
-5 74 -10z m1287 -75 c30 -15 41 -39 41 -93 0 -18 7 -44 16 -57 23 -36 9 -49
-29 -27 -23 14 -44 18 -75 14 -38 -4 -45 -1 -75 31 -17 19 -43 37 -56 39 -39
5 -36 26 4 34 26 4 39 14 46 31 15 41 78 55 128 28z m1020 -413 c14 -16 43
-34 64 -41 43 -15 41 -26 -6 -35 -24 -4 -35 -14 -44 -35 -14 -38 -76 -60 -127
-44 -28 9 -39 7 -64 -9 -41 -26 -51 -7 -18 37 17 22 26 46 26 70 0 53 36 85
96 85 38 0 51 -5 73 -28z m-9986 -372 c-4 -15 0 -20 13 -21 18 0 17 -1 -1 -8
-11 -4 -20 -14 -20 -22 -2 -36 -19 -67 -41 -78 -19 -9 -24 -16 -19 -32 6 -18
5 -19 -13 -10 -12 6 -37 11 -57 11 -40 0 -75 15 -75 32 0 6 -8 17 -17 24 -17
13 -16 14 6 20 22 7 23 8 6 20 -14 11 -15 14 -4 18 8 2 43 13 79 24 36 12 79
25 95 30 46 15 54 14 48 -8z m7499 -242 c31 -57 62 -115 69 -131 7 -15 19 -26
28 -25 11 2 15 -4 13 -21 -1 -13 16 -72 39 -130 73 -189 108 -297 129 -401 7
-30 18 -82 26 -115 16 -70 41 -286 50 -433 l6 -104 -28 4 -29 3 -2 130 c-1 72
-12 192 -23 269 -22 144 -80 387 -104 434 -7 15 -16 42 -19 60 -10 51 -133
326 -194 435 -45 80 -53 100 -43 112 7 8 15 15 19 15 3 0 32 -46 63 -102z
m-1050 -38 c7 -1 29 -21 48 -45 23 -29 41 -43 55 -42 19 2 23 -14 16 -76 -1
-4 -12 5 -25 20 -30 35 -44 25 -20 -14 18 -28 18 -28 -2 -10 -25 21 -30 21
-38 1 -8 -20 21 -67 34 -59 6 4 10 1 10 -4 0 -19 -26 -12 -48 13 -18 22 -25
24 -53 16 -37 -11 -49 -25 -49 -58 0 -19 -4 -22 -22 -16 -12 3 -29 16 -39 27
l-17 21 -39 -34 c-21 -19 -47 -45 -56 -57 -18 -23 -17 -23 8 -23 17 0 29 -6
31 -17 7 -25 92 -28 90 -4 -1 9 8 17 22 19 19 3 22 -1 22 -27 0 -23 -5 -31
-17 -31 -10 -1 -42 -2 -70 -3 -29 -1 -53 0 -53 4 0 3 -13 4 -30 1 -25 -3 -30
-1 -30 16 0 11 -3 32 -6 48 -4 26 3 38 66 101 70 71 71 72 46 79 -14 3 -26 10
-26 16 0 5 4 7 9 4 20 -12 43 7 38 31 -2 13 0 26 5 29 4 3 6 10 3 15 -4 5 -1
9 6 9 7 0 -2 16 -21 35 -34 35 -33 49 2 18 18 -16 18 -16 12 1 -6 16 -4 17 14
7 18 -10 72 -12 72 -3 0 1 -21 26 -47 55 l-48 52 67 -58 c36 -31 72 -57 80
-57z m845 -30 c55 0 83 -26 83 -75 0 -20 7 -49 15 -65 18 -35 13 -37 -25 -10
-17 12 -31 16 -35 11 -3 -6 17 -63 46 -128 52 -120 109 -276 109 -300 0 -14
-29 -29 -69 -35 -19 -3 -25 5 -42 57 -27 79 -95 248 -125 307 l-24 47 30 18
c30 17 39 33 20 33 -6 0 -22 12 -35 26 -14 15 -39 29 -56 33 -20 4 -35 15 -40
29 -7 19 -6 20 10 10 25 -15 83 24 74 50 -5 14 -3 15 8 5 7 -7 32 -13 56 -13z
m-5427 -53 c0 -8 -9 -22 -19 -31 -11 -10 -23 -32 -27 -49 -7 -35 -38 -89 -46
-82 -9 9 -36 -40 -43 -79 -4 -20 -16 -41 -26 -47 -11 -5 -19 -16 -19 -23 0
-16 -53 -27 -115 -25 -55 2 -79 29 -70 76 6 32 5 34 -9 20 -8 -8 -18 -33 -22
-56 -7 -47 -15 -50 -44 -19 -27 30 -22 52 15 58 35 6 49 40 16 40 -25 0 -36
17 -23 33 6 7 16 34 22 60 9 32 18 47 29 47 25 0 39 -13 42 -37 4 -22 5 -22
34 -7 17 9 44 16 60 15 26 -1 32 4 48 42 9 23 17 48 17 55 0 17 62 15 86 -3
27 -20 51 -18 64 5 12 23 30 27 30 7z m6224 -265 c12 -6 34 -13 51 -17 26 -6
28 -8 14 -19 -9 -6 -19 -32 -22 -56 -6 -55 -24 -138 -33 -151 -9 -15 -44 20
-60 58 -21 48 -16 52 15 15 l29 -33 6 36 c4 19 11 33 17 30 11 -7 12 35 1 53
-6 9 -12 5 -20 -13 -7 -14 -12 -32 -12 -40 0 -18 -14 -19 -28 -2 -6 7 -26 12
-46 11 -22 -1 -37 3 -40 12 -12 31 -35 13 -52 -41 -10 -30 -24 -55 -31 -55
-16 0 -17 12 -1 28 6 6 9 15 5 18 -9 9 -38 -16 -31 -27 3 -5 -4 -9 -16 -9 -26
0 -37 -25 -20 -45 19 -23 5 -29 -24 -10 -31 21 -33 36 -6 53 15 9 18 19 14 42
-4 19 -2 30 5 30 6 0 11 -7 11 -15 0 -22 10 -19 47 17 37 36 39 44 17 69 -14
16 -18 16 -31 4 -16 -17 -33 -20 -33 -6 0 20 31 33 64 27 32 -6 35 -5 41 24 4
16 16 36 27 44 12 9 17 19 12 27 -5 8 -3 11 7 7 8 -3 21 -9 31 -13 11 -5 18 0
24 17 6 21 8 20 27 -19 11 -23 30 -46 41 -51z m-4927 -186 c9 -9 -8 -46 -22
-46 -12 0 -187 63 -246 88 -13 6 -14 14 -7 39 l8 32 131 -54 c72 -30 133 -56
136 -59z m4125 34 c0 -11 1 -25 2 -31 1 -6 -53 -30 -119 -54 -66 -23 -127 -46
-136 -49 -12 -5 -19 0 -27 21 -9 28 -8 30 38 51 26 12 52 22 57 22 5 0 40 13
78 30 83 35 104 37 107 10z m-4849 -32 c15 -12 15 -18 -2 -84 -10 -40 -21 -77
-25 -82 -7 -12 -45 -259 -51 -329 -6 -77 -15 -103 -36 -103 -15 0 -19 7 -19
34 l0 35 -52 3 c-29 2 -77 -1 -107 -6 -50 -9 -55 -8 -72 13 -11 13 -19 29 -19
36 0 17 70 17 90 0 16 -14 50 -19 116 -17 l41 2 32 173 c36 193 70 337 81 337
3 0 14 -6 23 -12z m291 -14 c37 -13 46 -20 41 -33 -18 -43 -75 -287 -75 -320
0 -44 21 -68 68 -77 34 -7 41 -18 17 -28 -8 -3 -15 -16 -15 -29 0 -26 -47 -77
-72 -77 -9 0 -19 -10 -23 -22 -7 -22 -7 -22 -12 -3 -3 11 -17 32 -31 48 -20
21 -35 27 -69 27 -43 0 -57 12 -28 24 18 6 47 68 50 106 5 50 92 400 100 400
1 0 23 -7 49 -16z m5986 -66 c1 -29 7 -84 14 -121 13 -67 13 -69 -8 -77 -12
-4 -24 -6 -28 -4 -3 2 -12 37 -18 77 -15 88 -18 94 -37 68 -8 -12 -19 -18 -25
-15 -6 4 -8 3 -5 -2 3 -6 -14 -29 -38 -53 -74 -72 -60 -27 16 50 56 58 70 78
66 97 -3 16 -1 22 9 18 7 -3 16 -1 19 4 4 6 13 10 21 10 10 0 14 -14 14 -52z
m-248 -108 c15 0 38 -46 38 -76 0 -7 -14 -29 -31 -49 -29 -33 -31 -39 -27
-102 2 -47 -1 -68 -9 -70 -7 -3 -13 -11 -13 -18 0 -7 -17 -28 -38 -47 -22 -19
-36 -41 -34 -51 2 -9 0 -17 -5 -17 -16 1 -99 61 -126 93 -25 29 -28 30 -38 15
-5 -10 -14 -18 -19 -18 -12 0 -50 82 -50 107 0 12 -11 35 -25 51 -25 30 -35
56 -13 34 18 -18 28 -14 28 11 l1 22 20 -24 c17 -21 22 -22 30 -10 5 7 9 21 9
29 1 12 3 11 11 -3 14 -25 -9 -120 -28 -113 -17 7 -16 -6 2 -30 14 -19 14 -19
15 2 0 12 6 27 14 33 12 10 16 8 21 -10 7 -21 9 -19 25 15 9 20 32 51 50 68
19 17 41 44 50 62 14 25 25 32 55 34 37 3 37 4 30 39 -6 34 -5 35 17 29 13 -3
30 -6 40 -6z m1864 -145 c10 -8 31 -15 45 -15 14 0 35 -11 47 -25 12 -14 29
-25 37 -25 8 0 15 -4 15 -10 0 -5 -7 -10 -15 -10 -8 0 -24 -11 -37 -24 -27
-28 -87 -37 -112 -17 -12 10 -16 29 -14 77 1 35 4 64 8 64 3 0 15 -7 26 -15z
m-3000 -173 c-8 -16 -22 -34 -30 -41 -26 -21 -20 -51 9 -51 19 0 25 -5 25 -21
0 -13 8 -23 20 -26 26 -7 56 -61 42 -75 -12 -12 -32 -2 -32 16 0 8 -7 19 -15
26 -13 11 -15 9 -15 -13 0 -31 -16 -34 -127 -29 -78 4 -83 5 -83 27 0 14 12
31 34 46 40 27 38 41 -4 32 -28 -5 -30 -4 -30 26 0 33 3 35 93 45 26 3 53 10
60 16 26 22 62 49 65 50 1 0 -4 -13 -12 -28z m-5850 -67 l43 -25 11 21 c11 20
12 20 25 2 19 -24 19 -53 0 -53 -8 0 -15 -4 -15 -10 0 -5 7 -10 15 -10 19 0
19 2 -5 -45 -11 -22 -20 -45 -20 -52 0 -16 -17 -17 -22 -1 -3 8 -11 7 -28 -5
-35 -24 -61 -21 -100 12 -31 26 -36 27 -47 12 -10 -14 -13 -12 -19 16 -3 18
-12 37 -20 44 -17 14 -7 39 15 39 10 0 27 14 40 31 20 27 50 47 75 48 5 1 29
-10 52 -24z m1177 -308 c3 -62 4 -112 3 -113 0 -1 -22 -4 -47 -7 -42 -6 -47
-4 -53 16 -10 39 -7 215 5 219 5 2 27 2 48 0 l38 -4 6 -111z m1297 -206 c5
-11 18 -22 29 -26 10 -3 24 -19 31 -36 24 -57 -24 -110 -104 -114 -44 -1 -44
-1 -46 34 -5 89 -3 94 31 124 19 16 26 26 16 23 -11 -3 -16 -2 -12 4 10 17 44
11 55 -9z m-4119 -339 c-17 -16 -31 -32 -31 -36 0 -3 44 -6 97 -6 118 0 133
-9 133 -83 0 -40 3 -48 15 -43 13 4 13 2 5 -14 -5 -10 -10 -34 -9 -52 0 -26 2
-29 8 -13 7 18 9 17 24 -10 l16 -30 1 41 c0 47 10 59 120 149 l67 55 298 0
c264 0 301 -2 317 -17 15 -13 18 -32 18 -116 l0 -101 -47 -43 -47 -44 3 -100
3 -100 -36 -33 -35 -34 59 -4 c91 -7 100 -19 100 -141 l0 -100 -38 -36 c-21
-20 -64 -56 -97 -81 l-58 -45 -293 0 c-268 0 -295 2 -311 18 -16 16 -18 44
-21 295 l-3 277 -28 17 -29 16 20 -44 c15 -36 19 -66 19 -155 -1 -175 -11
-195 -167 -321 -124 -101 -132 -103 -400 -103 -289 0 -274 -8 -274 141 l0 102
50 44 51 43 -50 52 -50 52 -3 150 c-2 83 0 151 4 151 4 0 15 14 25 31 25 42
188 177 248 205 41 20 66 24 147 24 l96 0 49 44 c52 48 84 47 34 -2z m-3443
-57 c62 -19 105 -54 135 -109 20 -37 22 -55 22 -191 0 -197 -7 -213 -142 -325
-102 -86 -139 -107 -207 -119 -30 -5 -42 -12 -44 -26 -1 -11 -5 -29 -7 -41 -7
-31 -169 -162 -211 -170 -19 -3 -75 -4 -125 -2 -67 3 -94 8 -107 21 -15 16
-17 53 -20 390 -2 205 0 387 3 404 5 25 26 50 93 108 l87 75 236 0 c182 0 247
-3 287 -15z m626 -1 c14 -13 16 -49 16 -241 l0 -225 41 34 c97 79 94 78 209
78 160 0 150 16 150 -250 l0 -219 -83 -70 c-46 -39 -96 -75 -111 -81 -37 -14
-583 -14 -624 1 -17 6 -33 17 -36 25 -4 11 -8 473 -6 756 l0 58 90 75 91 75
124 0 c99 0 127 -3 139 -16z m1251 -4 c15 -16 17 -35 13 -129 l-3 -110 30 -4
c22 -3 18 -4 -15 -5 -30 -2 -55 -10 -74 -26 l-30 -23 3 -102 3 -102 -37 -33
-36 -34 60 -4 c92 -7 101 -19 101 -141 l0 -100 -42 -39 c-23 -21 -67 -58 -97
-81 l-54 -42 -274 -5 c-272 -5 -274 -5 -259 -25 35 -46 11 -59 -39 -21 -18 14
-44 28 -59 32 -30 7 -34 24 -8 30 16 5 17 30 14 387 -2 210 0 397 3 414 4 25
26 50 93 108 l87 75 301 0 c286 0 302 -1 319 -20z m774 3 c11 -10 36 -60 56
-112 19 -51 41 -105 49 -120 8 -14 26 -67 41 -117 24 -84 26 -105 26 -272 -1
-99 -4 -188 -7 -196 -11 -29 -177 -156 -212 -162 -18 -4 -74 -4 -124 -2 -108
5 -128 20 -128 94 0 24 -3 44 -6 44 -3 0 -42 -30 -87 -67 l-80 -67 -92 -4
c-109 -5 -162 8 -171 42 -3 13 -4 115 -2 227 l3 204 48 125 c99 257 91 244
189 326 l89 74 193 0 c170 0 196 -2 215 -17z m2057 -425 c10 -1 30 2 43 6 19
7 23 5 18 -7 -3 -9 -1 -29 5 -45 15 -39 4 -75 -29 -89 -36 -17 -42 -17 -99 8
-42 19 -46 23 -31 34 9 7 17 16 17 22 0 5 9 29 21 53 13 27 24 39 28 31 4 -7
16 -13 27 -13z m7559 -412 c9 -70 -1 -116 -25 -116 -9 0 -23 -7 -30 -15 -16
-19 -69 -19 -96 0 -34 23 -49 69 -34 104 23 58 54 74 152 79 25 2 27 -1 33
-52z m-1663 -25 l32 -29 -51 -58 c-91 -104 -238 -244 -248 -236 -5 4 -21 19
-34 34 l-24 27 139 145 c77 80 142 145 146 146 4 0 22 -13 40 -29z m-3497
-159 c23 -2 51 -14 65 -27 14 -12 36 -26 50 -30 l25 -8 -33 -14 c-18 -7 -35
-20 -38 -28 -4 -8 -12 -15 -20 -15 -19 0 -18 -9 3 -33 17 -18 17 -18 -9 -6
-22 10 -31 9 -45 -2 -17 -13 -17 -13 -3 5 10 13 11 20 4 23 -31 10 -48 33 -49
64 -1 19 -7 44 -13 56 -16 30 -15 36 6 27 9 -4 35 -9 57 -12z m3885 -177 c7
-9 13 -46 14 -86 l1 -70 28 5 c57 11 13 -35 -47 -50 -27 -6 -29 -5 -24 20 5
23 2 26 -23 26 -15 0 -34 7 -43 15 -23 23 -37 84 -25 107 5 10 7 22 4 27 -13
22 97 27 115 6z m-812 -61 c13 -20 21 -42 18 -49 -4 -12 -176 -129 -180 -123
-2 2 -13 20 -26 42 -20 33 -21 40 -8 47 8 4 48 32 89 63 41 30 76 55 79 55 3
0 15 -15 28 -35z m4390 -64 c16 0 37 -9 47 -20 10 -11 24 -20 32 -20 21 0 15
-17 -9 -24 -22 -6 -22 -7 -4 -17 15 -9 16 -13 5 -20 -8 -5 -25 -9 -39 -9 -14
0 -34 -6 -45 -14 -11 -7 -36 -16 -55 -19 -19 -3 -46 -8 -59 -13 -18 -5 -22 -4
-16 6 4 7 8 31 9 54 1 34 6 44 33 61 18 11 32 28 33 38 0 14 4 16 19 7 11 -5
33 -10 49 -10z m-7068 -95 c78 -41 129 -66 235 -112 44 -20 84 -39 88 -43 5
-4 3 -26 -3 -50 -9 -33 -15 -40 -28 -35 -9 4 -32 12 -50 17 -37 10 -256 115
-314 151 -21 12 -38 26 -38 31 0 8 39 76 43 76 1 0 31 -16 67 -35z m-5190
-629 c0 -342 3 -626 7 -630 4 -4 150 136 325 311 l318 318 0 -481 0 -481 -496
-489 c-273 -269 -500 -491 -505 -492 -5 -2 -234 218 -509 489 l-500 492 0 468
c0 257 4 470 8 473 5 3 147 -134 318 -305 170 -170 312 -309 316 -309 5 0 8
283 8 628 0 346 2 631 4 633 2 2 162 3 355 1 l351 -3 0 -623z m7588 516 c15
-38 22 -141 11 -148 -4 -2 -12 3 -19 10 -6 8 -25 14 -42 14 -23 -1 -39 7 -58
29 -15 17 -33 32 -40 35 -7 2 8 22 34 46 34 31 52 41 66 37 15 -5 20 -2 20 11
0 24 11 11 28 -34z m-5198 -90 c0 -28 -21 -52 -46 -52 -14 0 -23 -4 -20 -8 3
-5 -6 -25 -20 -45 -13 -20 -30 -53 -37 -74 -9 -27 -19 -39 -41 -44 -31 -9 -96
12 -96 30 0 6 -10 11 -23 11 -13 0 -32 6 -43 14 -18 14 -18 15 9 22 19 4 25 9
17 14 -9 6 -7 11 8 19 11 6 26 27 32 46 12 36 30 39 30 5 0 -14 10 -19 48 -22
49 -5 102 15 102 39 0 7 9 17 20 23 12 6 20 21 20 35 0 23 2 24 20 13 11 -7
20 -19 20 -26z m4589 -73 c7 -25 9 -45 4 -50 -13 -13 -206 -50 -214 -41 -4 4
-10 26 -14 49 l-6 41 58 12 c32 7 74 16 93 20 62 14 66 12 79 -31z m-797 -19
c65 -6 121 -10 125 -9 4 1 25 1 46 0 l37 -1 0 -51 0 -51 -122 6 c-132 7 -278
25 -291 36 -4 4 -5 26 -1 49 l7 42 41 -6 c22 -3 94 -10 158 -15z m3544 -190
c13 -11 33 -15 60 -12 35 3 44 0 62 -23 15 -18 34 -28 62 -32 40 -6 55 -22 23
-25 -10 -1 -27 -2 -38 -3 -42 -4 -45 -5 -45 -14 0 -5 10 -11 22 -14 19 -5 20
-8 8 -23 -35 -42 -143 -43 -154 -1 -3 12 -1 24 5 28 18 11 -3 63 -47 116 -52
61 -58 87 -10 47 18 -16 42 -36 52 -44z m1934 -49 c0 -4 -11 -25 -25 -45 -14
-20 -25 -46 -25 -57 0 -28 -27 -77 -49 -89 -33 -17 -61 -11 -92 19 -35 35 -36
59 -7 96 15 20 18 30 10 33 -22 7 -2 22 31 22 18 1 55 7 82 15 60 16 75 18 75
6z m-7376 -66 c25 -23 39 -29 59 -26 4 1 26 -9 50 -20 55 -29 148 -28 185 2
36 28 51 9 23 -29 -15 -21 -21 -45 -21 -81 0 -38 -5 -56 -20 -71 -15 -15 -16
-20 -6 -20 25 0 28 -18 6 -30 -18 -10 -22 -8 -27 9 -4 16 -11 19 -33 15 -34
-7 -86 18 -95 46 -3 11 -18 23 -33 26 -65 14 -71 28 -16 39 l36 6 -26 28 c-15
15 -45 38 -67 50 l-40 23 7 -27 c5 -19 1 -32 -16 -50 -21 -22 -21 -25 -6 -31
26 -10 0 -24 -44 -24 -40 0 -68 14 -51 24 8 5 5 15 -9 33 -11 14 -20 34 -20
45 0 27 45 68 74 68 14 0 28 5 31 10 10 17 31 11 59 -15z m-1003 -45 c11 -6
31 -34 44 -63 24 -49 25 -53 8 -64 -10 -7 -27 -21 -38 -32 -30 -30 -65 -39
-105 -29 -42 11 -70 41 -70 75 0 13 -7 37 -15 54 -16 30 -12 55 6 43 5 -3 16
0 24 6 8 6 18 9 23 7 4 -3 14 -2 22 4 20 12 77 11 101 -1z m7088 -16 c24 -20
31 -34 31 -60 0 -76 -89 -112 -144 -58 -35 36 -34 77 3 115 36 36 70 37 110 3z
m-1145 -69 c-4 -8 -12 -15 -19 -15 -14 0 -30 -44 -26 -72 1 -10 -12 -32 -30
-49 -26 -26 -38 -30 -65 -26 -23 4 -34 1 -38 -9 -3 -9 -11 -12 -17 -8 -9 5 -7
11 5 20 24 17 14 30 -29 38 -36 7 -49 26 -17 26 9 0 29 14 44 32 24 29 32 33
75 32 35 -1 58 5 83 22 43 28 41 27 34 9z m-1071 -12 c-7 -2 -13 -11 -13 -19
0 -10 12 -14 40 -14 31 0 47 -6 64 -25 13 -14 30 -25 39 -25 26 0 29 -18 5
-26 -13 -4 -33 -17 -45 -30 -30 -32 -86 -33 -107 -2 -9 12 -16 39 -16 60 0 20
-4 40 -10 43 -18 11 -11 34 13 38 31 6 44 6 30 0z m-364 -529 c43 -36 43 -82
-1 -119 -37 -31 -71 -28 -105 11 -37 41 -27 91 25 118 37 21 46 20 81 -10z
m1162 -13 c42 -43 39 -76 -11 -101 -50 -25 -56 -25 -85 4 -20 20 -24 31 -19
58 7 37 37 68 66 68 11 0 33 -13 49 -29z m1937 -234 c37 -34 28 -88 -20 -113
-24 -12 -33 -13 -55 -2 -61 29 -60 108 1 133 33 14 39 13 74 -18z"/>
<path d="M8248 10709 c-55 -72 -168 -312 -154 -326 14 -14 133 183 166 274 28
77 23 98 -12 52z"/>
<path d="M10317 9083 c-2 -4 -7 -21 -11 -38 -3 -16 -28 -140 -56 -275 -27
-135 -52 -261 -54 -280 -3 -19 -10 -51 -15 -70 -19 -62 -17 -65 67 -84 113
-26 274 -80 412 -136 66 -28 125 -50 129 -50 5 0 35 50 66 111 45 88 54 113
44 120 -11 7 -11 9 2 9 23 0 32 29 17 48 -11 13 -10 15 5 9 14 -5 32 23 107
173 50 99 90 182 90 185 0 9 -96 53 -222 104 -105 42 -360 123 -506 161 -24 6
-49 13 -57 16 -7 3 -15 2 -18 -3z"/>
<path d="M9364 8393 c-30 -3 -43 -9 -47 -22 -3 -14 -17 -19 -56 -23 -28 -3
-54 -7 -56 -10 -3 -3 2 -56 12 -118 l17 -113 85 7 c47 3 130 9 184 12 l97 7 0
-52 c0 -49 -1 -51 -27 -52 -123 -5 -188 -9 -250 -14 -87 -8 -82 15 -45 -225
l28 -175 59 4 c33 2 79 6 104 10 61 8 319 -5 416 -23 69 -12 82 -12 95 0 13
13 12 15 -8 20 -26 7 -26 7 -11 91 10 56 14 63 34 63 27 0 29 4 54 132 11 51
31 152 47 223 15 72 27 141 26 155 0 14 4 30 9 37 15 17 2 21 -125 38 -168 22
-156 25 -156 -41 0 -71 -25 -71 -26 -1 -1 56 -4 59 -46 62 -94 7 -378 12 -414
8z m536 -286 l85 -12 -2 -44 c-1 -24 -4 -45 -6 -48 -3 -2 -52 1 -111 8 l-106
13 0 48 c0 56 -4 55 140 35z m-194 -201 c-3 -22 -6 -77 -7 -121 -3 -106 -6
-117 -36 -113 l-25 3 1 134 c1 74 4 138 6 141 2 4 18 5 36 2 30 -4 31 -6 25
-46z"/>
<path d="M9117 8329 c-27 -4 -51 -9 -52 -11 -2 -2 2 -33 10 -68 8 -36 35 -171
60 -300 73 -373 68 -359 120 -346 16 4 25 14 25 26 0 16 -5 19 -29 14 -31 -6
-35 -3 -45 38 -6 25 -3 28 29 34 33 6 35 8 30 38 -2 17 -9 67 -15 111 -19 142
-17 137 -58 133 -31 -2 -37 1 -43 22 -15 55 -11 67 27 74 l35 7 -6 72 c-10
113 -19 160 -30 162 -5 2 -32 -1 -58 -6z"/>
<path d="M10145 8248 c-3 -18 -24 -114 -45 -213 -22 -99 -44 -211 -50 -250 -7
-38 -18 -97 -27 -129 -16 -67 -15 -69 52 -86 55 -15 226 -72 307 -104 45 -17
69 -22 74 -15 4 6 1 15 -6 19 -16 10 35 111 53 105 8 -3 42 56 96 167 46 95
101 208 122 250 l39 77 -23 16 c-12 8 -58 29 -102 46 -44 16 -89 33 -100 38
-47 19 -313 101 -347 107 -35 6 -36 5 -43 -28z m200 -166 l0 -71 104 -38 c57
-21 105 -43 108 -49 2 -5 -4 -27 -12 -48 -12 -28 -21 -37 -33 -33 -9 3 -68 24
-130 46 -63 23 -152 51 -198 62 -92 23 -90 22 -63 96 l8 21 73 -18 c40 -10 85
-21 101 -24 l27 -6 0 59 c0 50 -3 62 -20 71 -11 6 -18 16 -14 21 4 7 14 5 27
-4 19 -13 22 -24 22 -85z"/>
<path d="M7419 8115 c-8 -8 -36 -33 -62 -55 -41 -34 -51 -38 -67 -28 -16 11
-31 -1 -126 -100 -115 -122 -233 -261 -234 -277 0 -5 -18 -30 -40 -54 -22 -25
-40 -51 -40 -58 0 -8 -10 -27 -22 -44 l-23 -30 25 -20 c14 -11 39 -27 55 -35
17 -9 40 -26 53 -37 21 -20 23 -20 57 -4 20 9 37 17 38 17 1 0 1 -17 -1 -38
-4 -36 -1 -40 52 -75 31 -20 58 -37 61 -37 2 0 28 -18 57 -40 29 -22 58 -40
65 -40 6 0 25 21 41 48 16 26 46 67 66 92 21 25 48 59 62 75 64 77 206 226
272 285 39 36 72 68 72 71 0 6 -74 91 -137 157 l-41 43 -33 -20 c-20 -12 -42
-18 -56 -15 -18 5 -23 1 -28 -19 -4 -14 -16 -34 -26 -43 -20 -18 -20 -17 -10
8 12 33 6 39 -26 27 -35 -13 -39 -5 -11 17 21 17 23 28 25 113 1 55 7 97 13
101 8 5 7 10 -3 18 -10 9 -17 8 -28 -3z"/>
<path d="M10874 8071 c4 -5 37 -26 74 -47 183 -102 522 -355 522 -390 0 -37
-33 -22 -120 54 -101 89 -294 227 -401 286 -59 33 -75 37 -90 28 -26 -17 -37
-15 -14 2 18 13 17 15 -15 35 -19 11 -38 21 -42 21 -14 0 -14 -36 0 -53 14
-16 13 -17 -7 -15 -20 3 -32 -14 -95 -137 -39 -77 -88 -179 -109 -225 -21 -47
-51 -112 -68 -145 -16 -33 -25 -61 -21 -63 17 -5 212 -130 287 -183 44 -32
129 -103 188 -159 59 -57 109 -101 111 -99 2 2 9 14 15 26 9 18 9 22 -2 17 -7
-2 -22 5 -32 16 -18 20 -18 21 20 60 l39 40 23 -22 c12 -11 20 -25 17 -29 -3
-5 2 -6 10 -3 8 3 17 12 20 20 4 10 17 12 51 7 41 -5 49 -3 75 22 l30 28 -30
19 c-17 10 -30 25 -30 33 0 19 14 19 30 0 16 -20 49 -19 57 1 4 12 -24 46 -95
118 -56 55 -105 104 -108 108 -7 8 42 78 55 78 4 0 69 -60 143 -134 l136 -134
67 59 c37 33 78 67 91 75 27 18 31 42 9 50 -8 4 -15 15 -15 26 0 33 -235 258
-391 374 -97 72 -237 164 -331 218 -49 27 -63 32 -54 17z"/>
<path d="M7689 7583 c-104 -101 -228 -238 -294 -326 -25 -33 -27 -42 -16 -59
11 -18 10 -19 -9 -13 -15 5 -26 0 -40 -17 -20 -23 -26 -48 -12 -48 4 0 61 -36
127 -79 95 -63 121 -77 128 -65 13 23 29 17 17 -6 -9 -17 -8 -20 12 -20 20 0
42 -16 85 -62 22 -24 42 -38 105 -75 35 -19 73 -45 85 -55 21 -20 21 -20 39 9
10 15 21 30 24 33 3 3 38 46 79 95 41 50 112 127 160 172 65 63 84 86 76 97
-6 7 -35 42 -65 78 -145 170 -182 214 -274 327 -55 66 -103 121 -107 121 -5 0
-58 -48 -120 -107z m227 -220 c-43 -40 -82 -73 -87 -73 -5 0 -23 14 -41 30
l-33 31 85 80 85 80 34 -37 34 -37 -77 -74z"/>
<path d="M9070 7551 c-233 -64 -417 -148 -619 -285 -130 -89 -370 -325 -467
-461 -38 -52 -72 -95 -76 -95 -4 0 -8 -6 -8 -14 0 -9 8 -12 25 -8 14 2 36 -3
50 -12 14 -9 29 -15 33 -12 6 4 10 -17 12 -68 1 -27 -34 -72 -54 -68 -9 2 -27
-10 -41 -25 -22 -26 -24 -26 -18 -5 4 15 1 22 -9 22 -17 0 -41 79 -32 105 11
33 -11 6 -50 -59 -20 -33 -36 -63 -36 -68 0 -10 58 -40 98 -49 17 -4 32 -3 32
2 0 19 21 8 30 -15 6 -16 40 -39 108 -75 55 -28 104 -51 109 -51 5 0 24 28 42
63 115 211 317 427 521 558 137 88 286 160 370 180 66 15 160 50 160 60 0 5
-17 9 -37 9 -38 0 -36 15 2 22 26 4 28 46 8 148 -8 41 -17 91 -20 110 -13 93
-18 105 -43 107 -14 1 -54 -6 -90 -16z m-5 -136 c-16 -8 -21 -13 -10 -11 11 2
38 7 60 10 32 5 36 4 16 -4 l-23 -10 25 -20 c14 -11 31 -20 39 -21 10 0 10 -2
1 -6 -7 -2 -13 -11 -13 -20 0 -24 -32 -72 -53 -79 -10 -3 -33 -7 -51 -9 -30
-2 -35 0 -40 26 -3 18 -12 29 -22 29 -13 0 -14 3 -4 15 6 8 9 23 5 35 -5 14
-2 20 9 20 19 0 21 11 5 27 -18 18 -4 28 43 30 l43 2 -30 -14z"/>
<path d="M10000 7552 c0 -4 -7 -38 -16 -77 -8 -38 -17 -81 -19 -95 -2 -14 -14
-67 -25 -118 -12 -52 -19 -99 -17 -105 2 -7 38 -20 78 -31 41 -10 113 -34 160
-52 47 -19 88 -34 91 -34 13 0 87 180 81 196 -4 11 -3 15 5 10 7 -4 19 9 32
33 25 50 25 58 -1 66 -11 4 -18 9 -16 12 3 2 15 0 26 -6 18 -10 22 -7 37 20
18 35 18 34 -48 69 -40 22 -285 104 -335 114 -18 3 -33 2 -33 -2z"/>
<path d="M7253 7048 c-22 -35 -61 -102 -87 -150 l-47 -88 156 -75 c86 -41 158
-75 161 -75 3 0 77 -36 166 -80 88 -44 162 -79 163 -78 1 2 24 46 51 98 27 52
53 98 58 101 5 4 6 15 2 25 -7 18 -8 18 -21 0 -13 -17 -16 -17 -60 15 -26 19
-44 38 -41 46 3 7 -5 18 -17 24 -12 7 -39 27 -60 45 -51 47 -71 45 -62 -3 4
-21 14 -46 22 -55 15 -16 15 -18 0 -18 -28 0 -50 46 -44 90 5 38 3 41 -49 81
-33 25 -60 39 -69 35 -9 -3 -13 -2 -10 4 5 8 -151 120 -168 120 -3 0 -23 -28
-44 -62z"/>
<path d="M9547 6186 c-102 -37 -199 -140 -222 -238 -6 -23 -4 -26 13 -21 24 6
85 -45 102 -86 15 -37 -7 -88 -53 -127 l-31 -26 22 -42 c15 -28 40 -52 77 -74
l55 -33 2 -257 3 -257 140 0 140 0 3 258 2 257 50 31 c60 37 104 101 132 193
18 61 20 78 11 137 -14 88 -45 149 -105 205 -72 67 -137 94 -228 93 -41 0 -92
-6 -113 -13z"/>
<path d="M11166 5549 c-2 -8 -7 -51 -10 -95 -7 -98 -36 -233 -70 -332 l-25
-73 22 -9 c12 -5 56 -23 97 -39 l75 -30 11 25 c9 21 12 23 23 11 9 -12 8 -16
-5 -21 -19 -7 -8 -25 17 -30 8 -1 29 -10 47 -19 l33 -18 13 33 c7 18 16 40 19
48 3 10 6 10 6 2 1 -7 -6 -28 -14 -48 -14 -33 -13 -35 8 -43 12 -5 25 -6 28
-2 13 12 58 161 83 273 24 108 45 263 46 336 0 31 -2 32 -40 32 -47 0 -63 -22
-59 -78 4 -58 -11 -134 -25 -123 -6 5 -27 6 -46 2 -30 -6 -36 -12 -41 -41 l-6
-35 -2 37 c0 21 -12 53 -26 74 -14 20 -25 43 -25 50 0 7 16 29 35 50 19 20 35
41 35 45 0 5 5 9 10 9 6 0 10 -4 10 -10 0 -5 10 -10 23 -10 25 0 54 16 45 25
-3 3 -69 9 -147 12 -116 5 -141 4 -145 -8z"/>
<path d="M11591 5428 c-16 -155 -41 -285 -81 -413 -41 -133 -41 -131 -4 -127
24 2 33 -2 36 -15 3 -12 22 -24 49 -33 24 -7 49 -17 54 -21 11 -8 162 -59 176
-59 4 0 9 21 11 47 3 40 6 47 26 48 26 2 26 0 7 -55 -8 -23 -15 -46 -15 -50 0
-6 52 -30 66 -30 2 0 10 13 19 30 18 35 19 72 3 88 -9 9 -6 12 13 12 21 0 27
7 39 47 7 26 15 43 17 37 2 -6 -8 -46 -22 -89 -14 -43 -25 -93 -25 -112 0 -31
4 -36 46 -53 58 -25 68 -25 54 -1 -12 24 -13 68 -1 75 5 4 1 24 -10 46 -26 54
-24 110 5 110 10 0 11 -12 5 -47 -6 -39 -4 -50 9 -60 21 -17 37 -16 52 2 7 8
19 15 26 15 8 0 14 -7 14 -15 0 -24 17 -17 28 13 43 107 112 461 112 571 0 62
7 81 31 81 16 0 19 -8 19 -57 0 -32 -7 -103 -15 -158 -19 -131 -20 -125 15
-125 22 0 30 -5 30 -18 0 -15 -6 -18 -30 -14 -32 5 -40 -7 -54 -77 l-6 -34 82
7 c98 8 113 16 67 32 l-34 12 33 1 c27 1 34 -4 43 -26 10 -28 67 -93 80 -93 4
0 10 8 12 18 3 11 7 7 12 -15 9 -37 18 -41 37 -15 7 10 20 21 29 24 12 5 21
33 33 100 30 176 36 223 43 354 l6 131 -24 6 c-13 3 -129 6 -258 7 -129 0
-237 3 -240 5 -3 2 -107 5 -231 6 l-225 3 -3 -24 c-3 -24 -5 -25 -60 -20 -48
4 -57 8 -57 25 0 11 -7 21 -16 23 -14 2 -18 -17 -28 -120z m503 10 c-4 -46 -8
-90 -10 -98 -1 -8 -3 -23 -3 -32 -1 -14 -10 -18 -38 -18 -63 0 -65 4 -57 123
l7 107 54 0 53 0 -6 -82z"/>
<path d="M12756 5483 c-3 -21 -8 -76 -11 -123 -9 -117 -32 -287 -55 -398 -17
-83 -17 -97 -4 -127 16 -40 46 -59 79 -51 31 8 42 -10 15 -24 -11 -6 -23 -22
-26 -36 -8 -31 -32 -44 -88 -46 -30 -2 -48 -8 -52 -18 -16 -39 -64 -181 -64
-189 0 -5 17 -15 38 -21 20 -7 60 -23 89 -36 28 -13 55 -24 60 -24 4 0 44 -14
87 -31 84 -32 96 -30 96 18 0 12 5 25 11 29 8 5 9 -8 4 -43 l-6 -49 138 -53
c76 -29 181 -69 233 -87 52 -19 119 -46 148 -59 67 -32 98 -32 108 -2 3 12 19
48 35 81 16 32 35 84 43 115 36 144 43 167 53 186 6 11 20 66 32 122 11 56 25
112 30 125 5 13 12 52 15 88 4 36 16 110 27 165 22 116 39 293 39 416 l0 86
-152 5 c-154 5 -182 3 -173 -13 3 -4 -5 -13 -17 -20 -13 -6 -36 -23 -53 -38
l-30 -26 23 26 c45 52 38 54 -120 33 -49 -7 -57 -17 -74 -86 -6 -26 -34 -40
-34 -18 0 6 -20 10 -44 10 -24 0 -52 3 -61 6 -23 9 -45 57 -45 97 0 44 -9 47
-167 47 l-121 0 -6 -37z m539 -500 c-14 -37 -23 -111 -23 -180 1 -65 -2 -76
-28 -110 -16 -21 -29 -42 -30 -48 0 -5 -2 -27 -2 -47 -2 -30 -6 -38 -21 -38
-31 0 -33 15 -15 79 22 79 15 104 -36 124 -29 11 -40 21 -40 36 l0 21 21 -21
c20 -20 22 -20 40 -3 27 24 27 109 0 123 -23 13 -48 -5 -54 -39 -3 -18 -5 -14
-6 13 -1 32 3 39 26 48 22 8 32 6 54 -11 35 -25 39 -25 39 0 0 12 7 20 18 21
10 0 12 3 5 6 -7 2 -13 13 -13 24 0 15 7 19 36 19 30 0 35 -3 29 -17z"/>
<path d="M7559 5233 c-1 -5 -2 -17 -3 -27 -1 -15 -14 -22 -56 -32 -76 -18 -91
-17 -97 6 -6 23 -16 24 -118 9 -42 -7 -79 -17 -81 -24 -5 -11 3 -45 37 -176
l9 -36 79 -6 c43 -3 102 -15 130 -26 51 -19 52 -19 108 0 58 21 66 19 77 -17
5 -18 0 -23 -34 -33 -36 -11 -39 -14 -29 -32 7 -14 17 -19 30 -15 10 3 28 9
38 12 14 4 21 0 26 -16 6 -17 1 -28 -21 -45 -27 -22 -41 -55 -23 -55 5 0 25 6
44 14 18 8 35 12 38 10 2 -3 9 2 16 9 9 11 4 32 -23 96 -33 77 -79 224 -106
339 -7 32 -17 52 -26 52 -8 0 -14 -3 -15 -7z"/>
<path d="M6976 5135 c-38 -8 -73 -18 -77 -22 -9 -9 3 -84 27 -165 l17 -56 42
18 c23 10 67 23 98 30 32 6 57 17 57 23 -1 7 -9 50 -18 97 -17 83 -18 85 -47
87 -17 1 -61 -5 -99 -12z"/>
<path d="M6805 5100 c-20 -4 -30 -11 -29 -23 2 -19 -7 -22 -23 -6 -13 13 -213
-9 -213 -23 0 -6 9 -21 20 -35 19 -25 27 -53 14 -53 -3 0 -14 10 -24 23 l-19
22 -7 -32 c-11 -56 -27 -38 -20 22 3 30 2 55 -3 55 -4 0 -89 -15 -187 -34 -99
-18 -213 -39 -254 -46 -154 -24 -176 -28 -218 -41 -42 -14 -43 -15 -37 -49 12
-73 17 -90 24 -90 7 0 78 58 120 98 41 40 59 44 182 43 99 -1 126 -4 141 -17
16 -16 18 -36 18 -236 0 -201 5 -241 25 -208 4 6 29 29 57 50 l50 40 107 0
c114 0 144 -10 161 -54 5 -15 10 2 15 59 10 115 29 150 119 225 42 34 76 69
76 77 0 8 -6 35 -14 61 -7 26 -19 74 -25 106 -6 33 -14 63 -18 66 -5 4 -21 4
-38 0z"/>
<path d="M12247 4833 c-22 -76 -25 -98 -15 -105 18 -11 120 -10 114 1 -4 5 0
12 6 14 9 4 7 11 -8 24 -36 30 -47 62 -40 114 6 43 5 49 -12 49 -14 0 -23 -19
-45 -97z"/>
<path d="M7270 4890 c0 -28 21 -60 41 -60 80 0 163 -67 175 -139 l6 -40 35 17
c34 16 34 17 28 62 -4 25 -14 58 -23 73 -15 24 -21 27 -49 22 -29 -5 -33 -3
-39 20 -4 18 -16 27 -43 34 -60 15 -131 21 -131 11z"/>
<path d="M6040 4861 c-9 -18 -12 -159 -14 -611 l-1 -135 70 -3 c90 -3 98 0 83
33 -9 19 -19 25 -45 25 l-33 0 0 100 c0 60 -4 100 -10 100 -6 0 -10 31 -10 74
0 69 -1 74 -20 69 -32 -8 -23 7 10 18 l30 11 0 139 0 139 30 0 30 0 0 -141 c0
-109 3 -140 13 -136 8 3 12 -8 12 -39 0 -38 -2 -42 -12 -27 -11 14 -13 -8 -13
-120 l0 -137 170 0 169 0 3 113 3 112 28 3 27 3 0 -140 0 -141 -175 0 c-96 0
-175 -2 -175 -5 0 -2 5 -15 11 -28 11 -24 14 -25 133 -25 79 0 123 4 128 12 5
8 11 7 20 -2 7 -7 37 -12 70 -12 l58 0 0 105 c0 87 -3 105 -15 105 -8 0 -15 6
-15 14 0 8 -3 22 -6 31 -5 11 0 18 15 22 18 5 21 13 21 59 l0 54 -100 0 -100
0 0 -110 0 -110 -100 0 -100 0 0 300 0 300 -90 0 c-78 0 -91 -2 -100 -19z"/>
<path d="M8010 4871 c-37 -7 -82 -29 -65 -32 6 0 -1 -4 -15 -8 -49 -13 -94
-125 -60 -146 15 -9 60 22 60 41 0 8 9 24 20 36 10 12 17 26 13 31 -3 6 -1 7
5 3 6 -4 21 -2 33 5 12 6 51 15 87 19 62 8 93 22 79 36 -4 4 -12 2 -19 -3 -12
-10 -88 -17 -88 -8 0 2 7 11 16 19 14 15 13 16 -8 15 -13 -1 -39 -4 -58 -8z"/>
<path d="M8234 4858 c3 -13 6 -26 6 -30 0 -5 25 -8 55 -8 52 0 55 -1 55 -25 0
-22 -4 -25 -36 -25 l-35 0 18 -30 c15 -26 23 -30 60 -30 l43 0 0 85 0 85 -86
0 c-85 0 -86 0 -80 -22z"/>
<path d="M10490 4861 c0 -18 -5 -19 -55 -14 l-55 6 0 -144 -1 -144 -77 83
c-77 83 -77 84 -96 64 -11 -13 -15 -26 -10 -34 4 -7 62 -74 128 -147 l121
-135 3 212 2 212 30 0 30 0 0 -325 c0 -318 0 -325 -20 -325 -15 0 -20 -7 -20
-26 0 -21 3 -25 18 -19 41 17 52 17 52 1 0 -9 8 -16 20 -16 19 0 20 7 20 249
0 170 -3 252 -11 257 -7 4 -8 21 -4 48 4 22 7 79 8 126 l2 85 -42 3 c-37 3
-43 0 -43 -17z"/>
<path d="M11425 4787 c-18 -39 -54 -110 -80 -156 -25 -46 -45 -85 -43 -86 12
-11 201 -125 207 -125 5 0 28 -15 53 -34 57 -44 319 -206 333 -206 11 0 77
102 115 179 18 35 19 45 8 52 -7 5 -17 9 -21 9 -5 0 -7 10 -5 23 2 18 9 22 37
22 28 0 36 5 43 27 5 15 18 44 28 65 10 21 17 40 15 44 -10 15 -146 60 -165
54 -12 -4 -20 -2 -20 5 0 6 -21 20 -46 30 -52 23 -64 24 -64 9 0 -5 5 -7 10
-4 6 4 10 -5 10 -19 0 -23 -4 -26 -35 -26 -36 0 -39 5 -37 58 1 27 -25 45
-104 73 -32 11 -71 27 -86 35 -15 8 -41 14 -58 14 -16 0 -30 4 -30 9 0 5 -7
12 -16 15 -12 4 -24 -12 -49 -67z m130 -149 c69 -35 125 -67 125 -73 0 -6 -6
-20 -14 -31 -14 -18 -19 -17 -138 45 -68 35 -124 65 -126 66 -3 3 20 55 25 55
1 0 59 -28 128 -62z m260 -78 c22 -11 40 -24 40 -28 -1 -13 -75 -156 -93 -179
l-17 -22 -42 25 -42 26 45 81 c25 45 48 90 51 100 7 22 10 21 58 -3z"/>
<path d="M7132 4770 c-22 -9 -22 -11 -7 -34 15 -23 20 -24 93 -19 72 5 80 4
106 -19 28 -24 28 -25 32 -158 1 -74 3 -139 3 -143 1 -4 10 -3 22 4 15 8 18
14 10 22 -16 16 -14 50 2 44 8 -3 20 -1 27 3 11 7 12 14 2 35 -8 18 -9 24 -1
19 8 -4 10 21 8 89 -4 85 -7 98 -28 121 -14 14 -41 30 -60 36 -44 12 -178 12
-209 0z"/>
<path d="M8059 4750 c-19 -10 -42 -27 -50 -36 -8 -10 -9 -15 -3 -11 7 4 12 -3
12 -18 0 -23 -2 -24 -13 -8 -11 15 -14 -6 -14 -125 l-1 -143 30 -44 c34 -50
55 -68 46 -39 -3 11 -7 81 -8 156 -2 136 -2 138 -23 124 -21 -15 -21 -17 -10
-51 6 -20 6 -20 -6 -1 -7 11 -14 33 -15 49 -3 24 -1 27 10 18 11 -9 18 -6 35
15 12 15 21 31 21 36 0 19 71 38 140 38 l71 0 -18 30 c-17 29 -19 30 -93 30
-54 -1 -85 -6 -111 -20z"/>
<path d="M12230 4703 c-8 -2 -25 -23 -37 -47 l-22 -44 57 -22 c31 -12 84 -32
117 -44 33 -12 70 -28 82 -34 35 -19 45 -15 42 21 -3 52 0 77 11 77 6 0 10
-13 10 -30 0 -33 11 -38 30 -15 7 8 17 15 22 15 11 0 -8 -38 -35 -67 -19 -21
-19 -23 -2 -29 22 -9 28 2 60 99 30 93 32 113 7 72 -22 -35 -50 -60 -58 -52
-4 3 -9 26 -11 50 -5 42 -7 45 -42 51 -40 6 -207 6 -231 -1z"/>
<path d="M10103 4610 l-33 -30 0 -205 0 -205 -30 0 -30 0 -2 180 -3 180 -32
-22 -33 -23 0 -186 0 -186 98 1 97 1 3 218 c1 120 6 217 11 215 9 -3 153 -172
204 -239 16 -22 27 -48 27 -67 0 -30 2 -32 35 -32 35 0 35 0 35 46 0 44 -4 52
-77 133 -43 47 -91 101 -108 120 -62 72 -118 131 -124 131 -3 0 -21 -14 -38
-30z"/>
<path d="M6947 4619 c-9 -6 -22 -7 -27 -4 -13 8 -12 -357 1 -393 6 -15 17 -34
26 -44 14 -15 17 -15 49 4 37 22 41 30 20 47 -25 21 -36 97 -36 245 0 80 -3
147 -8 150 -4 2 -15 0 -25 -5z"/>
<path d="M12135 4521 c-15 -36 -55 -121 -91 -187 -35 -67 -64 -127 -64 -133 0
-22 64 -71 86 -66 28 6 38 -5 17 -21 -16 -11 -16 -15 -3 -39 12 -22 105 -95
122 -95 3 0 8 17 11 38 4 21 14 46 22 57 15 19 16 18 10 -17 -3 -21 -2 -38 3
-38 16 0 52 41 52 58 0 10 7 27 15 38 14 18 15 16 9 -18 -8 -50 1 -48 29 6 12
24 39 75 60 114 33 63 97 213 97 228 0 3 -17 -11 -37 -31 -37 -36 -37 -36 -46
-13 -5 13 -7 36 -4 51 4 33 8 31 -145 90 l-117 45 -26 -67z"/>
<path d="M9278 4416 l-3 -131 -77 -3 -78 -3 0 -68 c0 -73 6 -84 52 -95 21 -5
28 -2 33 14 3 11 11 20 16 20 5 0 9 5 9 10 0 6 -11 10 -25 10 -20 0 -25 5 -25
25 0 17 6 25 18 26 59 1 110 13 127 30 17 17 20 35 23 142 l4 122 -36 16 -35
16 -3 -131z"/>
<path d="M8270 4448 c0 -39 5 -58 23 -77 l22 -26 -22 19 -23 19 0 -51 0 -52
-76 0 c-41 0 -85 5 -97 12 -21 11 -21 10 -7 -8 49 -65 47 -64 151 -64 l98 0 3
108 3 107 28 3 c31 4 29 12 28 -140 l-1 -97 33 -25 c17 -14 28 -26 23 -26 -5
0 -17 6 -25 13 -12 9 -46 11 -126 7 l-110 -5 35 -27 c33 -25 42 -27 125 -26
50 0 83 3 75 5 -9 2 -21 13 -28 24 -13 20 -12 20 14 2 26 -17 27 -16 45 6 24
29 24 36 -2 60 l-21 20 21 -6 c21 -5 22 -4 19 118 -1 68 -5 132 -10 142 -7 14
-23 17 -103 17 l-95 0 0 -52z"/>
<path d="M8538 4259 c-3 -151 -2 -162 17 -175 11 -8 15 -14 9 -14 -5 0 -15 5
-21 11 -9 9 -20 4 -43 -20 -26 -25 -29 -32 -16 -37 9 -3 16 -11 16 -17 0 -5
-9 -2 -20 8 -20 18 -21 18 -42 -3 -22 -21 -22 -22 -3 -37 48 -37 173 -111 219
-130 28 -11 63 -29 78 -39 40 -27 197 -78 218 -71 12 4 22 -1 29 -13 5 -10 29
-24 53 -31 24 -7 48 -17 53 -21 11 -9 130 -33 245 -50 161 -24 502 -10 643 25
32 8 67 15 78 15 32 0 32 22 0 131 -16 57 -31 112 -33 123 -3 16 -15 18 -126
20 -117 1 -125 2 -143 25 -10 13 -19 36 -19 52 0 28 -2 29 -49 29 -45 0 -55
-5 -112 -52 l-63 -53 -233 -3 c-206 -3 -272 -10 -215 -25 16 -4 16 -5 0 -6
-19 -1 -24 -16 -9 -25 12 -8 2 -46 -17 -68 -13 -16 -12 -19 9 -28 20 -8 19 -9
-12 -4 -25 4 -39 1 -48 -10 -27 -32 -131 -10 -131 28 0 8 -16 17 -35 20 -24 5
-32 11 -28 21 3 8 9 12 14 9 5 -3 19 -2 31 2 l21 6 -24 20 c-22 18 -22 19 -3
13 12 -3 29 -3 38 1 15 6 15 7 -1 20 -12 9 -14 13 -5 14 7 0 11 4 8 9 -4 5 21
1 54 -9 48 -14 62 -16 76 -5 15 11 14 13 -12 19 -57 15 -64 29 -64 142 l0 102
-87 47 c-88 47 -155 92 -245 160 l-47 36 -3 -162z"/>
<path d="M7385 4371 c-16 -10 -31 -27 -33 -39 -6 -37 -49 -62 -106 -62 -36 0
-63 -7 -90 -24 -37 -22 -38 -23 -15 -29 38 -10 146 -8 194 4 62 16 87 47 93
114 2 30 1 55 -4 54 -5 0 -22 -8 -39 -18z"/>
<path d="M9447 4332 c-21 -21 -27 -38 -27 -70 l0 -42 80 0 c79 0 80 0 80 -25
0 -24 -2 -25 -72 -25 -40 0 -97 -7 -125 -14 -44 -12 -53 -12 -53 -1 0 14 -17
15 -38 2 -7 -5 -9 -13 -6 -19 4 -6 2 -8 -3 -5 -6 4 -15 1 -21 -6 -8 -9 3 -13
48 -14 48 -2 59 0 63 15 4 16 5 16 6 -1 1 -16 12 -17 129 -15 l127 3 3 83 3
82 -76 0 -75 0 0 40 c0 47 -7 49 -43 12z"/>
<path d="M4070 4870 c-84 -24 -117 -64 -127 -151 -5 -46 -4 -49 16 -49 34 0
61 18 61 41 0 35 28 76 64 93 46 22 346 24 346 3 0 -17 38 -53 46 -44 3 3 1
14 -5 25 -14 26 -14 45 -1 37 6 -4 10 7 10 24 l0 31 -192 -1 c-106 -1 -204 -4
-218 -9z"/>
<path d="M4810 4775 c0 -80 3 -103 13 -100 7 3 18 21 25 40 6 19 18 51 24 70
12 33 15 35 62 35 39 0 47 3 42 15 -3 9 0 15 9 15 8 0 15 -7 15 -15 0 -13 24
-15 155 -15 l155 0 0 -25 0 -25 -146 0 -146 0 6 -22 c3 -13 6 -26 6 -30 0 -5
74 -8 165 -8 l165 0 0 85 0 85 -275 0 -275 0 0 -105z"/>
<path d="M4106 4749 c-15 -11 -26 -31 -26 -44 0 -33 36 -39 83 -15 23 12 57
20 87 20 43 0 50 3 50 19 0 12 11 23 28 29 21 8 3 11 -84 11 -98 1 -114 -1
-138 -20z"/>
<path d="M3940 4598 c0 -127 50 -168 228 -189 101 -12 103 -12 127 11 14 13
25 18 25 12 0 -13 59 -47 67 -39 8 9 -16 45 -34 51 -10 3 -54 12 -98 21 -214
43 -235 55 -235 141 0 28 -5 36 -26 44 -49 19 -54 15 -54 -52z"/>
<path d="M4810 4384 l0 -274 93 0 c61 0 97 4 105 12 10 10 14 10 21 0 6 -10
34 -12 112 -9 57 2 115 7 128 12 17 6 22 5 17 -3 -5 -8 5 -12 33 -12 l41 0 0
85 0 85 -175 0 -175 0 0 70 0 70 130 0 130 0 0 80 0 80 -116 0 c-75 0 -113 -4
-109 -10 4 -7 -13 -8 -49 -4 -53 6 -56 5 -56 -15 0 -18 6 -21 48 -21 26 0 53
5 60 12 9 9 12 9 12 0 0 -7 27 -12 78 -14 75 -3 77 -4 77 -28 l0 -25 -137 -3
-138 -3 0 -124 0 -125 185 0 185 0 0 -25 0 -25 -215 0 -215 0 0 214 c0 118 -4
226 -9 239 -6 15 -20 26 -35 29 l-26 5 0 -273z"/>
<path d="M4079 4643 c-4 -27 5 -79 13 -84 6 -4 74 -19 151 -35 117 -23 146
-32 171 -55 30 -27 31 -29 31 -117 0 -76 -3 -95 -21 -119 -40 -55 -72 -63
-256 -63 l-168 0 0 24 0 24 169 4 c163 3 170 4 195 27 21 20 26 34 26 73 0 26
-4 48 -10 48 -21 0 -60 -24 -65 -41 -15 -46 -27 -49 -206 -49 l-169 0 0 -86 0
-85 228 3 c214 3 229 4 270 26 74 39 83 66 80 218 -3 125 -4 133 -28 156 -33
33 -63 48 -95 48 -14 0 -54 7 -88 14 -34 8 -79 18 -100 21 -27 4 -41 13 -49
31 -9 18 -19 24 -45 24 -18 0 -33 -3 -34 -7z"/>
<path d="M397 4873 c-9 -8 -9 -113 -1 -220 6 -69 9 -80 23 -75 12 4 12 0 -4
-17 -19 -22 -20 -37 -20 -235 l0 -211 105 0 105 0 3 111 3 112 132 4 c135 4
160 10 205 52 43 38 52 79 52 220 0 117 -3 135 -23 170 -27 48 -62 75 -113 86
-45 11 -457 13 -467 3z m450 -73 c71 -32 84 -64 81 -202 -3 -100 -6 -121 -24
-145 -33 -45 -99 -62 -246 -63 l-128 0 0 -110 0 -110 -25 0 -25 0 0 325 0 325
163 0 c138 0 168 -3 204 -20z"/>
<path d="M530 4611 l0 -161 144 0 c139 0 146 1 173 24 27 24 28 27 28 130 0
102 -1 106 -28 133 -27 28 -29 28 -172 31 l-145 4 0 -161z m250 79 c16 -16 20
-33 20 -85 0 -93 -16 -107 -118 -103 l-77 3 -3 103 -3 102 81 0 c67 0 83 -3
100 -20z"/>
<path d="M1280 4495 l0 -385 303 2 302 3 3 193 2 192 -99 0 -100 0 -3 -107 -3
-108 -97 -3 -98 -3 0 301 0 300 -105 0 -105 0 0 -385z m130 25 l0 -300 175 0
174 0 3 113 c3 108 4 112 26 115 22 3 22 3 22 -137 l0 -141 -225 0 -225 0 0
325 0 325 25 0 25 0 0 -300z"/>
<path d="M2176 4863 c-6 -23 -6 -713 0 -735 5 -17 27 -18 280 -18 l274 0 0 85
0 85 -172 2 -173 3 -3 68 -3 67 131 0 130 0 0 80 0 79 -127 3 -128 3 -3 63 -3
62 176 0 175 0 0 85 0 85 -274 0 c-253 0 -275 -1 -280 -17z m504 -68 l0 -25
-185 0 -185 0 0 -120 0 -119 138 -3 137 -3 0 -25 0 -25 -137 -3 -138 -3 0
-124 0 -125 185 0 185 0 0 -25 0 -25 -215 0 -215 0 0 325 0 325 215 0 215 0 0
-25z"/>
<path d="M3156 4871 c-6 -9 -76 -190 -76 -196 0 -2 10 -6 23 -8 21 -4 21 -4 1
-6 -29 -1 -37 -14 -68 -103 -24 -72 -26 -88 -26 -262 l0 -186 100 0 100 0 0
100 0 101 123 -3 122 -3 -3 -67 c-2 -36 -1 -80 3 -97 l7 -31 99 0 99 0 -1 193
c0 182 -2 196 -27 267 -27 75 -27 75 -66 78 -34 3 -38 1 -31 -15 50 -120 55
-146 55 -305 l0 -158 -30 0 -30 0 0 95 0 95 -195 0 -195 0 0 -95 0 -95 -30 0
-30 0 0 143 c0 78 5 162 10 187 23 101 109 293 139 309 11 6 60 11 110 11 106
0 116 -6 156 -95 22 -52 26 -55 59 -55 23 0 36 5 35 13 0 6 -17 53 -37 102
l-37 90 -177 3 c-99 1 -179 -2 -182 -7z"/>
<path d="M3240 4738 c-27 -44 -26 -68 2 -68 12 0 29 6 37 14 30 27 65 29 94 6
15 -12 27 -29 27 -39 0 -10 8 -42 18 -72 11 -30 22 -66 26 -81 l6 -28 -115 0
c-94 0 -115 3 -115 15 0 8 11 48 24 90 13 41 21 76 17 78 -3 1 -17 2 -31 2
-33 0 -51 -46 -27 -70 10 -9 17 -26 17 -38 0 -24 -34 -52 -52 -41 -15 9 -28
-15 -28 -53 l0 -33 195 0 195 0 0 34 c0 46 -12 78 -100 274 l-20 42 -75 0
c-74 0 -76 0 -95 -32z"/>
</g>
</svg>
